<?xml version="1.0" encoding="UTF-8" standalone="no"?>
<!DOCTYPE svg PUBLIC "-//W3C//DTD SVG 1.1//EN" "http://www.w3.org/Graphics/SVG/1.1/DTD/svg11.dtd">
<svg version="1.1" xmlns="http://www.w3.org/2000/svg" xmlns:xlink="http://www.w3.org/1999/xlink" preserveAspectRatio="xMidYMid meet" viewBox="0 0 640 640" width="640" height="640"><defs><path d="M265.53 225.67L321.13 225.67L321.13 261.16L265.53 261.16L265.53 225.67Z" id="fwwnKM0OP"></path><path d="M300 299.67L321.13 299.67L321.13 335.16L300 335.16L300 299.67Z" id="c1trdif04D"></path><path d="M349.39 251.13C352.8 269.97 352.45 289.3 348.37 308C347.31 312.86 347.98 309.77 346.34 317.29C344.17 327.23 340.22 336.69 334.68 345.23C333.87 346.49 331.82 349.63 328.56 354.67L350.56 354.67C353.79 349.63 355.8 346.48 356.61 345.22C361.59 337.45 365.49 329.05 368.21 320.24C370.68 312.24 367.51 322.51 368.36 319.76C376.31 294 376.51 266.47 368.93 240.6C367.99 237.41 370.92 247.4 368.51 239.18C365.69 229.57 361.3 220.5 355.51 212.32C354.85 211.39 353.2 209.06 350.56 205.33L323.56 206C327.07 209.45 329.27 211.61 330.15 212.48C339.84 221.99 346.34 234.26 348.75 247.62C349.91 254.03 348.52 246.32 349.39 251.13Z" id="a6yYCshK9t"></path></defs><g><g><g><use xlink:href="#fwwnKM0OP" opacity="1" fill="#7fff00" fill-opacity="0.99"></use><g><use xlink:href="#fwwnKM0OP" opacity="1" fill-opacity="0" stroke="#00004b" stroke-width="1" stroke-opacity="1"></use></g></g><g><use xlink:href="#c1trdif04D" opacity="1" fill="#7fff00" fill-opacity="0.99"></use><g><use xlink:href="#c1trdif04D" opacity="1" fill-opacity="0" stroke="#00004b" stroke-width="1" stroke-opacity="1"></use></g></g><g><use xlink:href="#a6yYCshK9t" opacity="1" fill="#7fff00" fill-opacity="0.99"></use><g><use xlink:href="#a6yYCshK9t" opacity="1" fill-opacity="0" stroke="#00004b" stroke-width="1" stroke-opacity="1"></use></g></g></g></g></svg>