<?xml version="1.0" encoding="UTF-8" standalone="no"?>
<!DOCTYPE svg PUBLIC "-//W3C//DTD SVG 1.1//EN" "http://www.w3.org/Graphics/SVG/1.1/DTD/svg11.dtd">
<svg version="1.1" xmlns="http://www.w3.org/2000/svg" xmlns:xlink="http://www.w3.org/1999/xlink" preserveAspectRatio="xMidYMid meet" viewBox="0 0 640 640" width="640" height="640"><defs><path d="M265.53 215.67L321.13 215.67L321.13 251.16L265.53 251.16L265.53 215.67Z" id="jyW68WGq8"></path><path d="M265.53 289.67L321.13 289.67L321.13 325.16L265.53 325.16L265.53 289.67Z" id="b3n6iSwvx"></path><path d="M349.39 241.13C352.8 259.97 352.45 279.3 348.37 298C347.31 302.86 347.98 299.77 346.34 307.29C344.17 317.23 340.22 326.69 334.68 335.23C333.87 336.49 331.82 339.63 328.56 344.67L350.56 344.67C353.79 339.63 355.8 336.48 356.61 335.22C361.59 327.45 365.49 319.05 368.21 310.24C370.68 302.24 367.51 312.51 368.36 309.76C376.31 284 376.51 256.47 368.93 230.6C367.99 227.41 370.92 237.4 368.51 229.18C365.69 219.57 361.3 210.5 355.51 202.32C354.85 201.39 353.2 199.06 350.56 195.33L323.56 196C327.07 199.45 329.27 201.61 330.15 202.48C339.84 211.99 346.34 224.26 348.75 237.62C349.91 244.03 348.52 236.32 349.39 241.13Z" id="dY72lM8JR"></path></defs><g><g><g><use xlink:href="#jyW68WGq8" opacity="1" fill="#7fff00" fill-opacity="0.99"></use><g><use xlink:href="#jyW68WGq8" opacity="1" fill-opacity="0" stroke="#00004b" stroke-width="1" stroke-opacity="1"></use></g></g><g><use xlink:href="#b3n6iSwvx" opacity="1" fill="#7fff00" fill-opacity="0.99"></use><g><use xlink:href="#b3n6iSwvx" opacity="1" fill-opacity="0" stroke="#00004b" stroke-width="1" stroke-opacity="1"></use></g></g><g><use xlink:href="#dY72lM8JR" opacity="1" fill="#7fff00" fill-opacity="0.99"></use><g><use xlink:href="#dY72lM8JR" opacity="1" fill-opacity="0" stroke="#00004b" stroke-width="1" stroke-opacity="1"></use></g></g></g></g></svg>