<?xml version="1.0" encoding="UTF-8" standalone="no"?>
<!DOCTYPE svg PUBLIC "-//W3C//DTD SVG 1.1//EN" "http://www.w3.org/Graphics/SVG/1.1/DTD/svg11.dtd">
<svg version="1.1" xmlns="http://www.w3.org/2000/svg" xmlns:xlink="http://www.w3.org/1999/xlink" preserveAspectRatio="xMidYMid meet" viewBox="0 0 640 640" width="640" height="640"><defs><path d="" id="ioC6lGTMW"></path><path d="M300.5 245L282 245L282 280.4L338.5 280.4L338 245L320 245L320 225L393.5 225L393.5 245L375 245L375 355L393.5 355L393.5 375L320.5 375L320.5 355L338.5 355L338.5 319.4L282 319.9L282 355L299 355L299 375L227 375L227 355L245 355L245 245L226.5 245L226.5 225L300 225L300.5 245Z" id="e1qU6E8WY2"></path></defs><g><g><g><g><use xlink:href="#ioC6lGTMW" opacity="1" fill-opacity="0" stroke="#000000" stroke-width="1" stroke-opacity="1"></use></g></g><g><use xlink:href="#e1qU6E8WY2" opacity="1" fill="#619dff" fill-opacity="1"></use><g><use xlink:href="#e1qU6E8WY2" opacity="1" fill-opacity="0" stroke="#121d6c" stroke-width="2" stroke-opacity="1"></use></g></g></g></g></svg>