<?xml version="1.0" encoding="UTF-8" standalone="no"?>
<!DOCTYPE svg PUBLIC "-//W3C//DTD SVG 1.1//EN" "http://www.w3.org/Graphics/SVG/1.1/DTD/svg11.dtd">
<svg version="1.1" xmlns="http://www.w3.org/2000/svg" xmlns:xlink="http://www.w3.org/1999/xlink" preserveAspectRatio="xMidYMid meet" viewBox="0 0 640 640" width="640" height="640"><defs><path d="M311 221L311 241L292.49 241L292.48 276.6L348.91 276.6L348.91 241L331.1 241L331.1 221L386 221L386 371L331.1 371L331.1 351L348.92 351L348.92 314.22L292.49 314.71L292.48 351L309.8 351L310.31 371L255.8 371L256 241L255.8 221L311 221Z" id="aI3BtfyZu"></path><path d="M335.18 180.13L337.45 180.29L339.7 180.52L341.94 180.81L344.17 181.17L346.38 181.58L348.57 182.06L350.74 182.6L352.89 183.19L355.02 183.85L357.12 184.56L359.21 185.33L361.26 186.16L363.29 187.05L365.3 187.99L367.27 188.98L369.22 190.03L371.14 191.14L373.02 192.29L374.87 193.5L376.69 194.76L378.47 196.07L380.22 197.43L381.92 198.83L383.59 200.29L385.22 201.8L386.81 203.35L388.36 204.94L389.86 206.59L391.32 208.27L392.74 210.01L394.11 211.78L395.43 213.6L396.7 215.46L397.92 217.36L399.1 219.3L400.22 221.28L401.28 223.3L402.29 225.36L404.68 230.39L406.09 233.46L407.43 236.56L408.7 239.68L409.9 242.82L411.03 245.98L412.08 249.16L413.06 252.36L413.97 255.57L414.8 258.8L415.57 262.04L416.26 265.29L416.87 268.55L417.42 271.82L417.89 275.11L418.29 278.4L418.62 281.69L418.87 284.99L419.06 288.29L419.17 291.6L419.2 294.91L419.17 298.22L419.06 301.52L418.88 304.83L418.63 308.13L418.3 311.42L417.9 314.71L417.43 317.99L416.89 321.27L416.28 324.53L415.59 327.78L414.83 331.02L413.99 334.25L413.09 337.46L412.11 340.66L411.06 343.84L409.94 347L408.74 350.14L407.47 353.26L406.13 356.36L404.72 359.44L402.77 363.56L401.73 365.67L400.64 367.74L399.5 369.76L398.3 371.75L397.05 373.7L395.75 375.6L394.4 377.46L393 379.28L391.55 381.05L390.06 382.78L388.52 384.46L386.94 386.1L385.31 387.68L383.65 389.22L381.94 390.72L380.19 392.16L378.4 393.55L376.58 394.89L374.72 396.18L372.83 397.41L370.9 398.6L368.94 399.73L366.95 400.8L364.93 401.82L362.88 402.78L360.8 403.69L358.69 404.54L356.56 405.33L354.41 406.06L352.23 406.73L350.03 407.34L347.81 407.89L345.57 408.38L343.31 408.81L341.03 409.17L338.74 409.47L336.43 409.7L334.1 409.87L331.77 409.97L329.42 410L200.8 410L200.8 390L208.2 390L209.13 389.98L210.05 389.93L210.96 389.83L211.86 389.7L212.75 389.54L213.63 389.34L214.49 389.11L215.34 388.85L216.17 388.55L216.99 388.22L217.8 387.87L218.58 387.48L219.35 387.06L220.1 386.61L220.83 386.14L221.54 385.64L222.23 385.11L222.9 384.56L223.55 383.98L224.18 383.38L224.78 382.75L225.36 382.11L225.91 381.44L226.44 380.75L226.94 380.04L227.41 379.3L227.86 378.55L228.27 377.78L228.66 377L229.02 376.2L229.35 375.38L229.64 374.54L229.91 373.69L230.14 372.83L230.34 371.95L230.5 371.06L230.63 370.16L230.72 369.25L230.78 368.33L230.8 367.4L230.8 223.3L230.78 222.34L230.72 221.39L230.62 220.45L230.49 219.52L230.32 218.61L230.12 217.7L229.88 216.81L229.61 215.94L229.3 215.08L228.97 214.23L228.6 213.4L228.2 212.59L227.77 211.8L227.31 211.03L226.82 210.27L226.3 209.54L225.76 208.83L225.19 208.14L224.59 207.47L223.97 206.83L223.33 206.2L222.66 205.61L221.97 205.04L221.26 204.5L220.52 203.98L219.77 203.49L219 203.03L218.2 202.6L217.39 202.2L216.57 201.83L215.72 201.49L214.86 201.19L213.98 200.92L213.09 200.68L212.19 200.47L211.27 200.3L210.35 200.17L209.41 200.08L208.46 200.02L207.49 200L200.8 200L200.8 180L330.6 180L332.89 180.03L335.18 180.13ZM260.8 380L326.3 380L327.44 379.99L328.57 379.94L329.7 379.87L330.82 379.76L331.94 379.63L333.05 379.47L334.15 379.28L335.24 379.07L336.33 378.82L337.41 378.55L338.48 378.25L339.54 377.93L340.59 377.57L341.63 377.19L342.66 376.79L343.67 376.36L344.68 375.9L345.67 375.42L346.65 374.92L347.62 374.38L348.57 373.83L349.51 373.25L350.43 372.65L351.34 372.02L352.23 371.37L353.11 370.69L353.97 370L354.81 369.28L355.63 368.54L356.44 367.77L357.23 366.99L358 366.18L358.75 365.36L359.48 364.51L360.18 363.64L360.87 362.75L361.54 361.84L362.18 360.91L362.8 359.96L363.4 358.99L364.88 356.52L365.33 355.78L365.77 355.02L366.21 354.27L366.65 353.52L367.08 352.76L367.51 352L367.93 351.24L368.35 350.48L368.77 349.72L369.19 348.95L369.6 348.19L370.01 347.42L370.41 346.64L370.81 345.87L371.21 345.1L371.6 344.32L371.99 343.54L372.37 342.76L372.76 341.98L373.13 341.19L373.51 340.41L373.88 339.62L374.25 338.83L374.61 338.04L374.97 337.25L375.33 336.45L375.68 335.66L376.03 334.86L376.38 334.06L376.72 333.26L377.06 332.46L377.39 331.65L377.72 330.85L377.99 330.19L378.53 328.5L379.1 326.61L379.63 324.72L380.14 322.82L380.6 320.91L381.04 319L381.44 317.08L381.81 315.16L382.14 313.23L382.44 311.3L382.7 309.37L382.94 307.43L383.13 305.49L383.3 303.54L383.43 301.6L383.53 299.65L383.59 297.7L383.62 295.75L383.61 293.8L383.58 291.85L383.51 289.91L383.4 287.96L383.26 286.01L383.09 284.07L382.88 282.13L382.64 280.19L382.37 278.25L382.06 276.32L381.72 274.39L381.34 272.47L380.93 270.55L380.49 268.64L380.01 266.74L379.5 264.84L378.96 262.94L378.74 262.24L378.74 262.23L378.43 261.45L378.11 260.67L377.79 259.89L377.47 259.11L377.14 258.34L376.81 257.56L376.48 256.79L376.14 256.02L375.8 255.25L375.45 254.48L375.11 253.72L374.75 252.95L374.4 252.19L374.04 251.43L373.68 250.67L373.31 249.91L372.95 249.15L372.57 248.4L372.2 247.65L371.82 246.89L371.44 246.14L371.05 245.4L370.66 244.65L370.27 243.91L369.87 243.16L369.47 242.42L369.07 241.68L368.66 240.95L368.25 240.21L368.07 239.88L367.72 239.3L366.85 237.92L365.94 236.56L364.99 235.23L364.02 233.94L363.01 232.67L361.98 231.43L360.91 230.22L359.82 229.04L358.69 227.89L357.54 226.78L356.36 225.7L355.16 224.65L353.93 223.63L352.67 222.64L351.39 221.69L350.09 220.77L348.77 219.89L347.42 219.04L346.05 218.23L344.66 217.45L343.25 216.71L341.83 216L340.38 215.34L338.91 214.71L337.43 214.11L335.94 213.56L334.42 213.04L332.9 212.56L331.35 212.13L329.8 211.73L328.23 211.37L326.65 211.05L325.06 210.78L323.46 210.54L321.85 210.35L320.23 210.2L318.6 210.09L316.96 210.02L315.32 210L262.82 210L260.8 380ZM379.32 326.8L379 327.61L378.69 328.42L378.37 329.23L378.05 330.04L377.99 330.19L377.93 330.38L377.29 332.24L376.62 334.11L379.93 325.17L379.62 325.98L379.32 326.8ZM378.38 261.06L378.74 262.24L379.05 263.01L379.35 263.8L379.65 264.58L379.95 265.37L380.25 266.16L380.54 266.95L380.83 267.74L381.11 268.54L377.12 257.31L377.77 259.18L378.38 261.06ZM367.84 239.48L368.07 239.88L368.56 240.71L367 238.01L367.42 238.74L367.84 239.48Z" id="ajGtA4HmX"></path><path d="M293.05 241L348.66 241L348.66 276.5L293.05 276.5L293.05 241Z" id="atdJWA8ua"></path><path d="M293.05 315L348.66 315L348.66 350.5L293.05 350.5L293.05 315Z" id="c2z5QFaSC3"></path><path d="M376.92 266.46C380.33 285.3 379.98 304.63 375.9 323.33C374.83 328.2 375.51 325.1 373.87 332.62C371.7 342.56 367.75 352.03 362.21 360.56C361.39 361.82 359.35 364.97 356.08 370L378.08 370C381.31 364.96 383.33 361.81 384.14 360.55C389.11 352.78 393.02 344.38 395.74 335.57C398.21 327.58 395.03 337.84 395.88 335.09C403.84 309.33 404.04 281.8 396.45 255.93C395.52 252.75 398.45 262.73 396.04 254.52C393.22 244.91 388.82 235.83 383.03 227.66C382.37 226.72 380.72 224.39 378.08 220.67L351.08 221.33C354.6 224.79 356.8 226.95 357.68 227.81C367.36 237.32 373.86 249.6 376.28 262.95C377.44 269.36 376.05 261.66 376.92 266.46Z" id="b31hpWjSO"></path></defs><g><g><g><use xlink:href="#aI3BtfyZu" opacity="1" fill="#619dff" fill-opacity="1"></use><g><use xlink:href="#aI3BtfyZu" opacity="1" fill-opacity="0" stroke="#00004b" stroke-width="2" stroke-opacity="1"></use></g></g><g><use xlink:href="#ajGtA4HmX" opacity="1" fill="#00004b" fill-opacity="0.97"></use><g><use xlink:href="#ajGtA4HmX" opacity="1" fill-opacity="0" stroke="#00004b" stroke-width="2" stroke-opacity="1"></use></g></g><g><use xlink:href="#atdJWA8ua" opacity="1" fill="#7fff00" fill-opacity="0.99"></use><g><use xlink:href="#atdJWA8ua" opacity="1" fill-opacity="0" stroke="#00004b" stroke-width="1" stroke-opacity="1"></use></g></g><g><use xlink:href="#c2z5QFaSC3" opacity="1" fill="#7fff00" fill-opacity="0.99"></use><g><use xlink:href="#c2z5QFaSC3" opacity="1" fill-opacity="0" stroke="#00004b" stroke-width="1" stroke-opacity="1"></use></g></g><g><use xlink:href="#b31hpWjSO" opacity="1" fill="#7fff00" fill-opacity="0.99"></use><g><use xlink:href="#b31hpWjSO" opacity="1" fill-opacity="0" stroke="#00004b" stroke-width="1" stroke-opacity="1"></use></g></g></g></g></svg>