<?xml version="1.0" encoding="UTF-8" standalone="no"?>
<!DOCTYPE svg PUBLIC "-//W3C//DTD SVG 1.1//EN" "http://www.w3.org/Graphics/SVG/1.1/DTD/svg11.dtd">
<svg version="1.1" xmlns="http://www.w3.org/2000/svg" xmlns:xlink="http://www.w3.org/1999/xlink" preserveAspectRatio="xMidYMid meet" viewBox="0 0 640 640" width="640" height="640"><defs><path d="M335.18 185.13L337.45 185.29L339.7 185.52L341.94 185.81L344.17 186.17L346.38 186.58L348.57 187.06L350.74 187.6L352.89 188.19L355.02 188.85L357.12 189.56L359.21 190.33L361.26 191.16L363.29 192.05L365.3 192.99L367.27 193.98L369.22 195.03L371.14 196.14L373.02 197.29L374.87 198.5L376.69 199.76L378.47 201.07L380.22 202.43L381.92 203.83L383.59 205.29L385.22 206.8L386.81 208.35L388.36 209.94L389.86 211.59L391.32 213.27L392.74 215.01L394.11 216.78L395.43 218.6L396.7 220.46L397.92 222.36L399.1 224.3L400.22 226.28L401.28 228.3L402.29 230.36L404.68 235.39L406.09 238.46L407.43 241.56L408.7 244.68L409.9 247.82L411.03 250.98L412.08 254.16L413.06 257.36L413.97 260.57L414.8 263.8L415.57 267.04L416.26 270.29L416.87 273.55L417.42 276.82L417.89 280.11L418.29 283.4L418.62 286.69L418.87 289.99L419.06 293.29L419.17 296.6L419.2 299.91L419.17 303.22L419.06 306.52L418.88 309.83L418.63 313.13L418.3 316.42L417.9 319.71L417.43 322.99L416.89 326.27L416.28 329.53L415.59 332.78L414.83 336.02L413.99 339.25L413.09 342.46L412.11 345.66L411.06 348.84L409.94 352L408.74 355.14L407.47 358.26L406.13 361.36L404.72 364.44L402.77 368.56L401.73 370.67L400.64 372.74L399.5 374.76L398.3 376.75L397.05 378.7L395.75 380.6L394.4 382.46L393 384.28L391.55 386.05L390.06 387.78L388.52 389.46L386.94 391.1L385.31 392.68L383.65 394.22L381.94 395.72L380.19 397.16L378.4 398.55L376.58 399.89L374.72 401.18L372.83 402.41L370.9 403.6L368.94 404.73L366.95 405.8L364.93 406.82L362.88 407.78L360.8 408.69L358.69 409.54L356.56 410.33L354.41 411.06L352.23 411.73L350.03 412.34L347.81 412.89L345.57 413.38L343.31 413.81L341.03 414.17L338.74 414.47L336.43 414.7L334.1 414.87L331.77 414.97L329.42 415L200.8 415L200.8 395L208.2 395L209.13 394.98L210.05 394.93L210.96 394.83L211.86 394.7L212.75 394.54L213.63 394.34L214.49 394.11L215.34 393.85L216.17 393.55L216.99 393.22L217.8 392.87L218.58 392.48L219.35 392.06L220.1 391.61L220.83 391.14L221.54 390.64L222.23 390.11L222.9 389.56L223.55 388.98L224.18 388.38L224.78 387.75L225.36 387.11L225.91 386.44L226.44 385.75L226.94 385.04L227.41 384.3L227.86 383.55L228.27 382.78L228.66 382L229.02 381.2L229.35 380.38L229.64 379.54L229.91 378.69L230.14 377.83L230.34 376.95L230.5 376.06L230.63 375.16L230.72 374.25L230.78 373.33L230.8 372.4L230.8 228.3L230.78 227.34L230.72 226.39L230.62 225.45L230.49 224.52L230.32 223.61L230.12 222.7L229.88 221.81L229.61 220.94L229.3 220.08L228.97 219.23L228.6 218.4L228.2 217.59L227.77 216.8L227.31 216.03L226.82 215.27L226.3 214.54L225.76 213.83L225.19 213.14L224.59 212.47L223.97 211.83L223.33 211.2L222.66 210.61L221.97 210.04L221.26 209.5L220.52 208.98L219.77 208.49L219 208.03L218.2 207.6L217.39 207.2L216.57 206.83L215.72 206.49L214.86 206.19L213.98 205.92L213.09 205.68L212.19 205.47L211.27 205.3L210.35 205.17L209.41 205.08L208.46 205.02L207.49 205L200.8 205L200.8 185L330.6 185L332.89 185.03L335.18 185.13ZM260.8 385L326.3 385L327.44 384.99L328.57 384.94L329.7 384.87L330.82 384.76L331.94 384.63L333.05 384.47L334.15 384.28L335.24 384.07L336.33 383.82L337.41 383.55L338.48 383.25L339.54 382.93L340.59 382.57L341.63 382.19L342.66 381.79L343.67 381.36L344.68 380.9L345.67 380.42L346.65 379.92L347.62 379.38L348.57 378.83L349.51 378.25L350.43 377.65L351.34 377.02L352.23 376.37L353.11 375.69L353.97 375L354.81 374.28L355.63 373.54L356.44 372.77L357.23 371.99L358 371.18L358.75 370.36L359.48 369.51L360.18 368.64L360.87 367.75L361.54 366.84L362.18 365.91L362.8 364.96L363.4 363.99L364.88 361.52L365.33 360.78L365.77 360.02L366.21 359.27L366.65 358.52L367.08 357.76L367.51 357L367.93 356.24L368.35 355.48L368.77 354.72L369.19 353.95L369.6 353.19L370.01 352.42L370.41 351.64L370.81 350.87L371.21 350.1L371.6 349.32L371.99 348.54L372.37 347.76L372.76 346.98L373.13 346.19L373.51 345.41L373.88 344.62L374.25 343.83L374.61 343.04L374.97 342.25L375.33 341.45L375.68 340.66L376.03 339.86L376.38 339.06L376.72 338.26L377.06 337.46L377.39 336.65L377.72 335.85L377.99 335.19L378.53 333.5L379.1 331.61L379.63 329.72L380.14 327.82L380.6 325.91L381.04 324L381.44 322.08L381.81 320.16L382.14 318.23L382.44 316.3L382.7 314.37L382.94 312.43L383.13 310.49L383.3 308.54L383.43 306.6L383.53 304.65L383.59 302.7L383.62 300.75L383.61 298.8L383.58 296.85L383.51 294.91L383.4 292.96L383.26 291.01L383.09 289.07L382.88 287.13L382.64 285.19L382.37 283.25L382.06 281.32L381.72 279.39L381.34 277.47L380.93 275.55L380.49 273.64L380.01 271.74L379.5 269.84L378.96 267.94L378.74 267.24L378.74 267.23L378.43 266.45L378.11 265.67L377.79 264.89L377.47 264.11L377.14 263.34L376.81 262.56L376.48 261.79L376.14 261.02L375.8 260.25L375.45 259.48L375.11 258.72L374.75 257.95L374.4 257.19L374.04 256.43L373.68 255.67L373.31 254.91L372.95 254.15L372.57 253.4L372.2 252.65L371.82 251.89L371.44 251.14L371.05 250.4L370.66 249.65L370.27 248.91L369.87 248.16L369.47 247.42L369.07 246.68L368.66 245.95L368.25 245.21L368.07 244.88L367.72 244.3L366.85 242.92L365.94 241.56L364.99 240.23L364.02 238.94L363.01 237.67L361.98 236.43L360.91 235.22L359.82 234.04L358.69 232.89L357.54 231.78L356.36 230.7L355.16 229.65L353.93 228.63L352.67 227.64L351.39 226.69L350.09 225.77L348.77 224.89L347.42 224.04L346.05 223.23L344.66 222.45L343.25 221.71L341.83 221L340.38 220.34L338.91 219.71L337.43 219.11L335.94 218.56L334.42 218.04L332.9 217.56L331.35 217.13L329.8 216.73L328.23 216.37L326.65 216.05L325.06 215.78L323.46 215.54L321.85 215.35L320.23 215.2L318.6 215.09L316.96 215.02L315.32 215L262.82 215L260.8 385ZM379.32 331.8L379 332.61L378.69 333.42L378.37 334.23L378.05 335.04L377.99 335.19L377.93 335.38L377.29 337.24L376.62 339.11L379.93 330.17L379.62 330.98L379.32 331.8ZM378.38 266.06L378.74 267.24L379.05 268.01L379.35 268.8L379.65 269.58L379.95 270.37L380.25 271.16L380.54 271.95L380.83 272.74L381.11 273.54L377.12 262.31L377.77 264.18L378.38 266.06ZM367.84 244.48L368.07 244.88L368.56 245.71L367 243.01L367.42 243.74L367.84 244.48Z" id="h24K4xdfPb"></path></defs><g><g><g><use xlink:href="#h24K4xdfPb" opacity="1" fill="#00004b" fill-opacity="0.97"></use><g><use xlink:href="#h24K4xdfPb" opacity="1" fill-opacity="0" stroke="#00004b" stroke-width="2" stroke-opacity="1"></use></g></g></g></g></svg>